{
  "asset": {
    "version": "2.0",
    "generator": "THREE.GLTFExporter"
  },
  "scenes": [
    {
      "name": "Scene",
      "nodes": [
        2,
        3,
        4
      ]
    }
  ],
  "scene": 0,
  "nodes": [
    {
      "name": "pot_aloe_Cylinder.002",
      "mesh": 0
    },
    {
      "name": "plant_aloe_CUMesh.001",
      "mesh": 1
    },
    {
      "matrix": [
        3.871013211340614,
        0,
        0,
        0,
        0,
        3.871013211340614,
        0,
        0,
        0,
        0,
        3.871013211340614,
        0,
        0,
        0,
        0,
        1
      ],
      "name": "aloevera.obj",
      "children": [
        0,
        1
      ]
    },
    {
      "name": "AmbientLight"
    },
    {
      "matrix": [
        0.98346095470963,
        0.14868020720819483,
        0.10343474535257122,
        0,
        0.032393509851903535,
        -0.7062642230874987,
        0.7072068351664078,
        0,
        0.17819991885828015,
        -0.6921596948473236,
        -0.6993995608718682,
        0,
        1.375882778632799,
        2.8018160780313384,
        2.610662905561669,
        1
      ],
      "name": "DirectionalLight",
      "extensions": {
        "KHR_lights_punctual": {
          "light": 0
        }
      }
    }
  ],
  "bufferViews": [
    {
      "buffer": 0,
      "byteOffset": 0,
      "byteLength": 34560,
      "target": 34962,
      "byteStride": 12
    },
    {
      "buffer": 0,
      "byteOffset": 34560,
      "byteLength": 34560,
      "target": 34962,
      "byteStride": 12
    },
    {
      "buffer": 0,
      "byteOffset": 69120,
      "byteLength": 23040,
      "target": 34962,
      "byteStride": 8
    },
    {
      "buffer": 0,
      "byteOffset": 92160,
      "byteLength": 104832,
      "target": 34962,
      "byteStride": 12
    },
    {
      "buffer": 0,
      "byteOffset": 196992,
      "byteLength": 104832,
      "target": 34962,
      "byteStride": 12
    },
    {
      "buffer": 0,
      "byteOffset": 301824,
      "byteLength": 69888,
      "target": 34962,
      "byteStride": 8
    }
  ],
  "buffers": [
    {
      "byteLength": 371712,
      "uri": "data:application/octet-stream;base64,"
    }
  ],
  "accessors": [
    {
      "bufferView": 0,
      "componentType": 5126,
      "count": 2880,
      "max": [
        0.12146999686956406,
        0.18708999454975128,
        0.12146999686956406
      ],
      "min": [
        -0.12146999686956406,
        0.018501000478863716,
        -0.12146999686956406
      ],
      "type": "VEC3"
    },
    {
      "bufferView": 1,
      "componentType": 5126,
      "count": 2880,
      "max": [
        0.9994000196456909,
        1,
        0.9994000196456909
      ],
      "min": [
        -0.9994000196456909,
        -1,
        -0.9994000196456909
      ],
      "type": "VEC3"
    },
    {
      "bufferView": 2,
      "componentType": 5126,
      "count": 2880,
      "max": [
        0.9974830150604248,
        0.9534080028533936
      ],
      "min": [
        0.0055320002138614655,
        0.00034699999378062785
      ],
      "type": "VEC2"
    },
    {
      "bufferView": 3,
      "componentType": 5126,
      "count": 8736,
      "max": [
        0.15374800562858582,
        0.5148980021476746,
        0.16954299807548523
      ],
      "min": [
        -0.18062399327754974,
        0.15204499661922455,
        -0.10874000191688538
      ],
      "type": "VEC3"
    },
    {
      "bufferView": 4,
      "componentType": 5126,
      "count": 8736,
      "max": [
        0.9998999834060669,
        0.940500020980835,
        0.9997000098228455
      ],
      "min": [
        -0.9998999834060669,
        -0.9797000288963318,
        -0.9997000098228455
      ],
      "type": "VEC3"
    },
    {
      "bufferView": 5,
      "componentType": 5126,
      "count": 8736,
      "max": [
        0.9875050187110901,
        0.9999610185623169
      ],
      "min": [
        0.000039999998989515007,
        -0.0030559999868273735
      ],
      "type": "VEC2"
    }
  ],
  "materials": [
    {
      "pbrMetallicRoughness": {
        "metallicFactor": 0.5,
        "roughnessFactor": 0.5
      },
      "name": "aloe_pot"
    },
    {
      "pbrMetallicRoughness": {
        "metallicFactor": 0.5,
        "roughnessFactor": 0.5
      },
      "name": "plant_aloe"
    }
  ],
  "meshes": [
    {
      "primitives": [
        {
          "mode": 4,
          "attributes": {
            "POSITION": 0,
            "NORMAL": 1,
            "TEXCOORD_0": 2
          },
          "material": 0
        }
      ]
    },
    {
      "primitives": [
        {
          "mode": 4,
          "attributes": {
            "POSITION": 3,
            "NORMAL": 4,
            "TEXCOORD_0": 5
          },
          "material": 1
        }
      ]
    }
  ],
  "extensions": {
    "KHR_lights_punctual": {
      "lights": [
        {
          "name": "DirectionalLight",
          "color": [
            1,
            1,
            1
          ],
          "intensity": 1,
          "type": "directional"
        }
      ]
    }
  },
  "extensionsUsed": [
    "KHR_lights_punctual"
  ]
}